<?xml version="1.0" encoding="UTF-8"?>
<svg xmlns="http://www.w3.org/2000/svg" viewBox="0 0 2560 1440" width="2560" height="1440">
  <title>ELI5 HQ — YouTube channel banner</title>

  <!-- Full-bleed background -->
  <rect width="2560" height="1440" fill="#0E0E12"/>

  <!-- Mobile-safe zone content. Safe zone is 1546x423 centered at (1280, 720).
       Left = 507, Right = 2053, Top = 508.5, Bottom = 931.5. Three thirds of
       507px width each, separated by small gutters. -->

  <!-- LEFT THIRD: wordmark "ELI 5 HQ" at y ~720 baseline -->
  <g transform="translate(600 560)">
    <!-- "ELI" in Chalk White -->
    <text x="0" y="110" font-family="'Space Grotesk', sans-serif" font-weight="700"
          font-size="160" fill="#FAFAF5" letter-spacing="-4">ELI</text>
    <!-- Custom 5 glyph in Hazard Pink, sized to match the E/L/I cap height -->
    <g transform="translate(260 -20) scale(0.16)" fill="#FF2E63">
      <path d="M 210 165 L 745 155 L 735 295 L 355 305 L 345 445 Q 505 405 660 455 Q 840 515 855 695 Q 840 870 640 895 Q 430 905 225 830 L 285 695 Q 425 765 575 755 Q 705 745 700 640 Q 695 560 560 555 Q 430 560 335 605 L 200 595 Z"/>
    </g>
    <!-- "HQ" as a smaller stamp in Chalk White on a Chalk White tile — here
         the bible calls for HQ as a minor stamp. Implemented as tightly-set
         Space Grotesk 700 in a thin rounded rect to read as a stamp. -->
    <g transform="translate(0 180)">
      <rect x="0" y="0" width="180" height="60" rx="4" fill="#FAFAF5"/>
      <text x="90" y="44" font-family="'Space Grotesk', sans-serif" font-weight="700"
            font-size="40" fill="#0E0E12" text-anchor="middle" letter-spacing="4">HQ</text>
    </g>
  </g>

  <!-- MIDDLE THIRD: tagline -->
  <g transform="translate(1165 620)">
    <text x="0" y="0" font-family="'Inter', sans-serif" font-weight="500"
          font-size="48" fill="#FAFAF5">STEM explained like you're 5.</text>
    <text x="0" y="72" font-family="'Inter', sans-serif" font-weight="500"
          font-size="48" fill="#FAFAF5">the science is still for grown-ups.</text>
  </g>

  <!-- RIGHT THIRD: cadence callout -->
  <g transform="translate(1830 620)">
    <text x="0" y="0" font-family="'Space Grotesk', sans-serif" font-weight="700"
          font-size="44" fill="#FAFAF5" letter-spacing="2">new drops</text>
    <text x="0" y="80" font-family="'Space Grotesk', sans-serif" font-weight="700"
          font-size="72" fill="#C6F24E" letter-spacing="2">tue <tspan fill="#C6F24E">+</tspan> fri</text>
    <!-- Hazard Pink scribble underline beneath the + character. The + sits
         around x ~80 based on glyph widths; the scribble is a short
         hand-drawn path. -->
    <path d="M 82 100 Q 98 90 114 102 Q 126 110 142 98"
          stroke="#FF2E63" stroke-width="6" fill="none" stroke-linecap="round"/>
  </g>

  <!-- BLEED ZONE stickers. Positioned in the four corners outside the
       tablet-safe zone (left edge of tablet-safe = 352, right = 2207,
       top of safe-zone band = 508, bottom = 932). Stickers sit in the
       outer bands. All stickers use a two-layer offset: base fill + a
       slightly-offset outline/shadow for sticker-sheet feel. -->

  <!-- TOP-LEFT: Plasma Violet worried-photon blob (Space pillar) -->
  <g transform="translate(220 220)">
    <!-- shadow layer -->
    <ellipse cx="4" cy="6" rx="110" ry="130" fill="#0E0E12" opacity="0.6"/>
    <!-- body blob -->
    <ellipse cx="0" cy="0" rx="110" ry="130" fill="#7A3BFF"/>
    <!-- eyes -->
    <circle cx="-32" cy="-18" r="11" fill="#0E0E12"/>
    <circle cx="32" cy="-18" r="11" fill="#0E0E12"/>
    <!-- worried mouth -->
    <path d="M -22 32 Q 0 18 22 32" stroke="#0E0E12" stroke-width="5"
          fill="none" stroke-linecap="round"/>
    <!-- sweat bead, slightly off the photon -->
    <path d="M -95 -90 Q -82 -125 -70 -90 Q -70 -78 -82 -74 Q -95 -80 -95 -90 Z"
          fill="#2EC4FF"/>
  </g>

  <!-- TOP-RIGHT: Lab Lime "52! =" number fragment (Math pillar) -->
  <g transform="translate(2340 230)">
    <!-- shadow -->
    <text x="3" y="3" font-family="'Space Grotesk', sans-serif" font-weight="700"
          font-size="160" fill="#0E0E12" opacity="0.6" text-anchor="end">52! =</text>
    <!-- fill -->
    <text x="0" y="0" font-family="'Space Grotesk', sans-serif" font-weight="700"
          font-size="160" fill="#C6F24E" text-anchor="end">52! =</text>
  </g>

  <!-- BOTTOM-LEFT: Beaker Blue sweaty-CPU character (Tech pillar) -->
  <g transform="translate(230 1180)">
    <!-- shadow -->
    <rect x="-95" y="-85" width="190" height="170" rx="18" fill="#0E0E12" opacity="0.6" transform="translate(4 5)"/>
    <!-- body (rounded square) -->
    <rect x="-95" y="-85" width="190" height="170" rx="18" fill="#2EC4FF"/>
    <!-- pin legs: three short bars out each side -->
    <g fill="#2EC4FF">
      <rect x="-110" y="-55" width="15" height="10"/>
      <rect x="-110" y="-20" width="15" height="10"/>
      <rect x="-110" y="15"  width="15" height="10"/>
      <rect x="95"  y="-55" width="15" height="10"/>
      <rect x="95"  y="-20" width="15" height="10"/>
      <rect x="95"  y="15"  width="15" height="10"/>
    </g>
    <!-- eyes -->
    <circle cx="-30" cy="-20" r="10" fill="#0E0E12"/>
    <circle cx="30"  cy="-20" r="10" fill="#0E0E12"/>
    <!-- nervous straight-line mouth -->
    <path d="M -28 30 L 28 30" stroke="#0E0E12" stroke-width="5" stroke-linecap="round"/>
    <!-- sweat bead off the top-right corner -->
    <path d="M 70 -100 Q 80 -125 90 -100 Q 90 -90 80 -86 Q 70 -90 70 -100 Z"
          fill="#FAFAF5"/>
  </g>

  <!-- BOTTOM-RIGHT: Moss Green platypus outline (Nature pillar). Stylized
       side-view silhouette: body + bill + tail + foot. -->
  <g transform="translate(2280 1200)">
    <!-- shadow -->
    <g fill="#0E0E12" opacity="0.6" transform="translate(4 5)">
      <path d="M -120 0 Q -100 -55 -20 -55 Q 60 -55 90 -20 Q 120 -20 140 -10 Q 130 10 95 10 Q 70 35 10 40 Q -80 40 -105 30 Q -125 45 -140 35 Q -130 15 -120 0 Z"/>
    </g>
    <!-- body -->
    <path d="M -120 0 Q -100 -55 -20 -55 Q 60 -55 90 -20 Q 120 -20 140 -10 Q 130 10 95 10 Q 70 35 10 40 Q -80 40 -105 30 Q -125 45 -140 35 Q -130 15 -120 0 Z"
          fill="#4F8A3C"/>
    <!-- bill separator line -->
    <path d="M 88 -18 Q 115 -10 135 -8" stroke="#0E0E12" stroke-width="3" fill="none"/>
    <!-- tiny eye -->
    <circle cx="50" cy="-30" r="5" fill="#0E0E12"/>
    <!-- foot -->
    <path d="M -30 38 L -28 55 L -15 55 L -18 38 Z" fill="#4F8A3C"/>
  </g>
</svg>
