<?xml version="1.0" encoding="UTF-8"?>
<svg xmlns="http://www.w3.org/2000/svg" viewBox="0 0 150 150" width="150" height="150">
  <title>ELI5 HQ YouTube video watermark — 5 glyph, transparent BG</title>
  <!-- No background — transparent. Glyph source is 1000x1000; scaled
       to ~120px here and centered. The shadow is rendered as a
       duplicate offset copy of the path at 30% opacity rather than an
       SVG filter, because librsvg's filter support is incomplete and
       would break rsvg-convert PNG rendering. -->
  <g transform="translate(15 15) scale(0.12)">
    <path d="M 210 165 L 745 155 L 735 295 L 355 305 L 345 445 Q 505 405 660 455 Q 840 515 855 695 Q 840 870 640 895 Q 430 905 225 830 L 285 695 Q 425 765 575 755 Q 705 745 700 640 Q 695 560 560 555 Q 430 560 335 605 L 200 595 Z"
          fill="#0E0E12" opacity="0.3" transform="translate(18 18)"/>
    <path d="M 210 165 L 745 155 L 735 295 L 355 305 L 345 445 Q 505 405 660 455 Q 840 515 855 695 Q 840 870 640 895 Q 430 905 225 830 L 285 695 Q 425 765 575 755 Q 705 745 700 640 Q 695 560 560 555 Q 430 560 335 605 L 200 595 Z"
          fill="#FAFAF5"/>
  </g>
</svg>
